<svg width="88" height="24" viewBox="0 0 88 24" fill="none" xmlns="http://www.w3.org/2000/svg">
<path fill-rule="evenodd" clip-rule="evenodd" d="M10 0L40 15L42 16V2.18C42.0002 1.44673 41.9197 0.71567 41.76 0L39.7 0C39.8999 0.709378 40.0009 1.44298 40 2.18V12.76L14.47 0H10ZM41.76 24C41.4354 22.5512 40.7922 21.1928 39.8772 20.0235C38.9622 18.8542 37.7983 17.9034 36.47 17.24L4 1L2 0V13.82C2.00099 15.6766 2.51883 17.4963 3.49552 19.0753C4.47222 20.6542 5.86919 21.9301 7.53 22.76L10 24H14.47L8.42 20.98C7.09089 20.3149 5.97332 19.2927 5.19261 18.0281C4.41191 16.7634 3.99894 15.3062 4 13.82V3.24L35.58 19.02C36.5754 19.5178 37.4559 20.2179 38.1653 21.0754C38.8747 21.9329 39.3974 22.929 39.7 24H41.76ZM78 24L80.47 22.76C82.1308 21.9301 83.5278 20.6542 84.5045 19.0753C85.4812 17.4963 85.999 15.6766 86 13.82V0L84 1L51.53 17.24C50.2017 17.9034 49.0378 18.8542 48.1228 20.0235C47.2078 21.1928 46.5646 22.5512 46.24 24H48.3C48.6026 22.929 49.1253 21.9329 49.8347 21.0754C50.5441 20.2179 51.4246 19.5178 52.42 19.02L84 3.24V13.82C84.0011 15.3062 83.5881 16.7634 82.8074 18.0281C82.0267 19.2927 80.9091 20.3149 79.58 20.98L73.53 24H78ZM78 0L48 15L46 16V2.18C45.9998 1.44673 46.0803 0.71567 46.24 0L48.3 0C48.1001 0.709378 47.9991 1.44298 48 2.18V12.76L73.53 0H78Z" fill="#572912" fill-opacity="0.08"/>
</svg>
